<svg version="1.2" xmlns="http://www.w3.org/2000/svg" viewBox="0 0 216 186" width="216" height="186"><style>.a{fill:#f90}.b{fill:#cdde20}.c{fill:#ec1561}.d{fill:#00a7f7}</style><path class="a" d="m153.8 166.4c-3.6 6.6-8.8 9.9-16.1 9.6-6.6-0.2-13.7 1.1-18.2-5.2-2.1-3-4.3-6.9-4.3-10.4-0.3-46.3-0.2-92.6-0.2-138.9 0-7.2 7.1-15.5 14.7-14.6 3.4 0.4 7 0.5 10.5 0 7.9-1 14.9 8.1 14.9 14.9-0.2 46.2-0.1 92.3-0.1 138.5 0 1.9-0.7 3.8-1.2 6.1z"/><path class="b" d="m46.8 169.7c-5.4 8.7-24.3 8.2-30.4 2.7-3.3-2.9-6.1-8.3-6.1-12.6-0.5-45.8-0.3-91.6-0.3-137.4 0-7 6.4-16.8 15.9-15.5 3.1 0.5 6.3 0.1 9.5 0.1 8.3 0 14.6 6.2 14.6 14.5 0 46.3 0.1 92.6-0.1 138.9 0 3-1.8 6-3.1 9.3z"/><path class="c" d="m62 91c0-13-0.2-25.5 0.1-38 0.1-7.4 2.6-13.8 10.1-17.1 9.8-4.4 24.7-0.6 28.5 7.6 0.9 1.9 1.2 4.4 1.2 6.6 0.1 36.7-0.1 73.3 0.3 109.9 0 8.1-5.1 14-12.7 15.6-4.6 1-9.7 0.9-14.3-0.1-9.3-2.1-13-8-13.1-17.5-0.3-22.2-0.1-44.3-0.1-67z"/><path class="d" d="m166 127c0-17-0.1-33.5 0.1-50 0-3.2 0.2-6.6 1.3-9.6 1.5-4.4 4.6-8.3 9.4-9.1 5.5-1 11.3-1.8 16.6-0.9 8.9 1.4 13.6 8.2 13.6 17.6 0 27.3 0.2 54.6-0.1 82-0.1 12.2-6 19.4-19.4 19-2.8-0.1-5.7 0.2-8.4-0.5-10-2.7-12.4-8-13-18-0.5-10-0.1-20-0.1-30.5z"/><path class="d" d="m193.5 7c8.9 1.5 12.3 7.7 13.3 15.1 0.8 6.4 1 13.2-3.8 18.7-1.1 1.3-2.3 2.7-3.8 3.5-7.4 4.1-15.2 3.7-22.9 1.3-6.4-1.9-9.1-7.3-9.9-13.7-0.9-7.9-1.1-15.9 5.9-21.5 2.1-1.8 5.1-2.9 7.8-3.3 4.3-0.5 8.6-0.1 13.4-0.1z"/></svg>